<?xml version="1.0" standalone="no"?>
<!DOCTYPE svg PUBLIC "-//W3C//DTD SVG 20010904//EN"
 "http://www.w3.org/TR/2001/REC-SVG-20010904/DTD/svg10.dtd">
<svg version="1.0" xmlns="http://www.w3.org/2000/svg"
 width="700.000000pt" height="700.000000pt" viewBox="0 0 700.000000 700.000000"
 preserveAspectRatio="xMidYMid meet">
<metadata>
Created by potrace 1.14, written by Peter Selinger 2001-2017
</metadata>
<g transform="translate(0.000000,700.000000) scale(0.100000,-0.100000)"
fill="#000000" stroke="none">
<path d="M4600 6337 c-19 -7 -321 -204 -670 -438 l-635 -424 -455 -6 c-410 -5
-466 -8 -565 -27 -560 -109 -1033 -432 -1327 -905 -407 -654 -391 -1491 39
-2134 63 -95 174 -233 227 -282 l26 -24 0 -292 c0 -258 2 -301 20 -369 73
-288 334 -489 635 -489 309 0 572 210 642 511 l17 72 656 0 655 0 13 -68 c7
-37 32 -105 54 -152 34 -68 59 -102 128 -170 133 -133 274 -192 460 -192 257
0 477 136 591 367 61 124 69 178 69 500 l0 280 71 80 c128 144 219 275 298
433 l40 79 168 5 c136 5 181 10 233 28 176 58 307 205 345 385 21 100 21 690
0 790 -29 135 -101 243 -213 318 -106 72 -168 88 -365 95 l-168 5 -40 79 c-92
182 -209 346 -353 490 -95 95 -219 201 -276 234 l-30 18 0 509 c0 353 -4 521
-11 548 -34 111 -175 185 -279 146z m-158 -1005 l3 -368 25 -49 c22 -42 42
-61 132 -121 298 -198 489 -430 613 -741 41 -104 94 -164 161 -182 22 -6 134
-11 262 -11 209 0 223 -1 242 -20 19 -19 20 -33 20 -340 0 -307 -1 -321 -20
-340 -19 -19 -33 -20 -242 -20 -128 0 -240 -5 -262 -11 -67 -18 -120 -78 -161
-182 -79 -198 -194 -374 -342 -523 -140 -142 -127 -91 -133 -509 -6 -389 -7
-394 -63 -454 -105 -111 -277 -87 -347 49 -14 27 -19 66 -22 175 -3 122 -7
146 -27 188 -45 92 -148 140 -252 116 -83 -18 -1363 -25 -1534 -8 -172 18
-212 16 -261 -9 -44 -22 -89 -69 -107 -111 -6 -14 -13 -94 -16 -177 -6 -143
-8 -153 -34 -192 -94 -143 -302 -131 -373 22 -24 50 -24 54 -24 381 0 204 -4
345 -11 369 -8 28 -41 71 -125 158 -219 230 -352 476 -415 766 -32 153 -37
403 -10 561 83 488 390 902 826 1116 191 93 340 136 540 155 61 5 292 10 515
10 376 0 408 2 445 19 22 11 252 161 510 334 259 174 473 316 477 316 4 1 8
-165 10 -367z"/>
<path d="M4284 3996 c-91 -41 -147 -154 -125 -250 25 -108 109 -176 216 -176
217 0 303 281 124 406 -35 24 -53 29 -113 32 -45 1 -82 -3 -102 -12z"/>
</g>
</svg>
